ffmpeg version 2024-07-22-git-172da370e7-full_build-www.gyan.dev Copyright (c) 2000-2024 the FFmpeg developers
  built with gcc 13.2.0 (Rev5, Built by MSYS2 project)
  configuration: --enable-gpl --enable-version3 --enable-static --disable-w32threads --disable-autodetect --enable-fontconfig --enable-iconv --enable-gnutls --enable-libxml2 --enable-gmp --enable-bzlib --enable-lzma --enable-libsnappy --enable-zlib --enable-librist --enable-libsrt --enable-libssh --enable-libzmq --enable-avisynth --enable-libbluray --enable-libcaca --enable-sdl2 --enable-libaribb24 --enable-libaribcaption --enable-libdav1d --enable-libdavs2 --enable-libopenjpeg --enable-libquirc --enable-libuavs3d --enable-libxevd --enable-libzvbi --enable-libqrencode --enable-librav1e --enable-libsvtav1 --enable-libvvenc --enable-libwebp --enable-libx264 --enable-libx265 --enable-libxavs2 --enable-libxeve --enable-libxvid --enable-libaom --enable-libjxl --enable-libvpx --enable-mediafoundation --enable-libass --enable-frei0r --enable-libfreetype --enable-libfribidi --enable-libharfbuzz --enable-liblensfun --enable-libvidstab --enable-libvmaf --enable-libzimg --enable-amf --enable-cuda-llvm --enable-cuvid --enable-dxva2 --enable-d3d11va --enable-d3d12va --enable-ffnvcodec --enable-libvpl --enable-nvdec --enable-nvenc --enable-vaapi --enable-libshaderc --enable-vulkan --enable-libplacebo --enable-opencl --enable-libcdio --enable-libgme --enable-libmodplug --enable-libopenmpt --enable-libopencore-amrwb --enable-libmp3lame --enable-libshine --enable-libtheora --enable-libtwolame --enable-libvo-amrwbenc --enable-libcodec2 --enable-libilbc --enable-libgsm --enable-libopencore-amrnb --enable-libopus --enable-libspeex --enable-libvorbis --enable-ladspa --enable-libbs2b --enable-libflite --enable-libmysofa --enable-librubberband --enable-libsoxr --enable-chromaprint
  libavutil      59. 28.100 / 59. 28.100
  libavcodec     61. 10.100 / 61. 10.100
  libavformat    61.  5.101 / 61.  5.101
  libavdevice    61.  2.100 / 61.  2.100
  libavfilter    10.  2.102 / 10.  2.102
  libswscale      8.  2.100 /  8.  2.100
  libswresample   5.  2.100 /  5.  2.100
  libpostproc    58.  2.100 / 58.  2.100
Input #0, matroska,webm, from 'physics\2226059347_219_Modern_04__JEE_Mains_PYQ_Discussion__NO_DPP__Recorded__Extra.mkv':
  Metadata:
    ENCODER         : Lavf60.22.101
  Duration: 01:31:47.30, start: 0.000000, bitrate: 386 kb/s
  Stream #0:0: Video: h264 (High), yuv420p(progressive), 640x360 [SAR 1:1 DAR 16:9], 30 fps, 30 tbr, 1k tbn
      Metadata:
        DURATION        : 01:31:47.300000000
  Stream #0:1(eng): Audio: aac (LC), 48000 Hz, stereo, fltp
      Metadata:
        DURATION        : 01:31:47.285000000
Stream mapping:
  Stream #0:0 -> #0:0 (copy)
  Stream #0:1 -> #0:1 (copy)
[segment @ 000001bce3c1e880] Opening 'Modern\04\\output000.mkv' for writing
Output #0, segment, to 'Modern\04\\output%03d.mkv':
  Metadata:
    encoder         : Lavf61.5.101
  Stream #0:0: Video: h264 (High), yuv420p(progressive), 640x360 [SAR 1:1 DAR 16:9], q=2-31, 30 fps, 30 tbr, 1k tbn
      Metadata:
        DURATION        : 01:31:47.300000000
  Stream #0:1(eng): Audio: aac (LC), 48000 Hz, stereo, fltp
      Metadata:
        DURATION        : 01:31:47.285000000
Press [q] to stop, [?] for help
[segment @ 000001bce3c1e880] Opening 'Modern\04\\output001.mkv' for writing
[segment @ 000001bce3c1e880] Opening 'Modern\04\\output002.mkv' for writing
[segment @ 000001bce3c1e880] Opening 'Modern\04\\output003.mkv' for writing
size=N/A time=00:16:12.56 bitrate=N/A speed=1.92e+03x    [segment @ 000001bce3c1e880] Opening 'Modern\04\\output004.mkv' for writing
[segment @ 000001bce3c1e880] Opening 'Modern\04\\output005.mkv' for writing
[segment @ 000001bce3c1e880] Opening 'Modern\04\\output006.mkv' for writing
size=N/A time=00:32:46.53 bitrate=N/A speed=1.92e+03x    [segment @ 000001bce3c1e880] Opening 'Modern\04\\output007.mkv' for writing
[segment @ 000001bce3c1e880] Opening 'Modern\04\\output008.mkv' for writing
[segment @ 000001bce3c1e880] Opening 'Modern\04\\output009.mkv' for writing
size=N/A time=00:49:40.63 bitrate=N/A speed=1.94e+03x    [segment @ 000001bce3c1e880] Opening 'Modern\04\\output010.mkv' for writing
[segment @ 000001bce3c1e880] Opening 'Modern\04\\output011.mkv' for writing
[segment @ 000001bce3c1e880] Opening 'Modern\04\\output012.mkv' for writing
[segment @ 000001bce3c1e880] Opening 'Modern\04\\output013.mkv' for writing
size=N/A time=01:06:05.78 bitrate=N/A speed=1.93e+03x    [segment @ 000001bce3c1e880] Opening 'Modern\04\\output014.mkv' for writing
[segment @ 000001bce3c1e880] Opening 'Modern\04\\output015.mkv' for writing
[segment @ 000001bce3c1e880] Opening 'Modern\04\\output016.mkv' for writing
size=N/A time=01:22:39.27 bitrate=N/A speed=1.93e+03x    [segment @ 000001bce3c1e880] Opening 'Modern\04\\output017.mkv' for writing
[segment @ 000001bce3c1e880] Opening 'Modern\04\\output018.mkv' for writing
[out#0/segment @ 000001bce3c29dc0] video:192234KiB audio:64538KiB subtitle:0KiB other streams:0KiB global headers:0KiB muxing overhead: unknown
size=N/A time=01:31:47.23 bitrate=N/A speed=1.91e+03x    
